<svg xmlns="http://www.w3.org/2000/svg" xmlns:xlink="http://www.w3.org/1999/xlink" width="500" zoomAndPan="magnify" viewBox="0 0 375 374.999991" height="500" preserveAspectRatio="xMidYMid meet" version="1.2"><defs/><g id="26c4b4ab26"><g style="fill:#004b96;fill-opacity:1;"><g transform="translate(37.324473, 264.746696)"><path style="stroke:none" d="M -12.03125 -38.625 C -10.957031 -45.0625 -7.980469 -49.957031 -3.097656 -53.316406 C 0.996094 -56.128906 5.5625 -57.535156 10.601562 -57.535156 L 26.960938 -57.535156 L 22.746094 -41.730469 C 22.589844 -41.140625 22.835938 -40.195312 23.488281 -38.890625 C 24.824219 -36.21875 26.820312 -33.722656 29.480469 -31.394531 C 36.746094 -25.136719 45.421875 -20.671875 55.503906 -17.996094 C 66.390625 -15.109375 77.808594 -13.664062 89.753906 -13.664062 C 101.992188 -13.664062 113.683594 -14.746094 124.839844 -16.90625 C 135.980469 -19.070312 145.6875 -21.824219 153.949219 -25.175781 C 161.332031 -28.167969 166.421875 -31.101562 169.214844 -33.980469 C 169.5 -34.277344 169.675781 -34.476562 169.738281 -34.582031 C 169.535156 -34.230469 169.386719 -33.765625 169.292969 -33.183594 C 169.019531 -31.46875 169.328125 -30.050781 170.214844 -28.933594 C 170.378906 -28.722656 170.53125 -28.5625 170.667969 -28.445312 C 170.640625 -28.46875 170.566406 -28.519531 170.445312 -28.59375 C 169.839844 -28.96875 168.976562 -29.371094 167.851562 -29.800781 C 164.835938 -30.953125 160.667969 -32.007812 155.347656 -32.964844 C 132.792969 -36.886719 113.082031 -40.695312 96.207031 -44.390625 C 78.492188 -48.269531 63.683594 -53.1875 51.78125 -59.136719 C 38.511719 -65.773438 28.75 -74.65625 22.496094 -85.796875 C 16.273438 -96.867188 13.738281 -110.84375 14.882812 -127.714844 C 15.753906 -142.84375 20.734375 -156.421875 29.824219 -168.445312 C 38.34375 -179.714844 49.199219 -189.359375 62.386719 -197.378906 C 75.21875 -205.183594 89.152344 -211.132812 104.191406 -215.21875 C 119.125 -219.28125 133.898438 -221.378906 148.503906 -221.511719 C 163.488281 -221.644531 177.269531 -219.523438 189.855469 -215.144531 C 203.402344 -210.433594 214.167969 -202.960938 222.144531 -192.722656 C 230.539062 -181.953125 234.28125 -168.539062 233.371094 -152.476562 C 232.480469 -136.433594 226.628906 -122.261719 215.820312 -109.972656 C 205.085938 -97.769531 192.023438 -90.039062 176.628906 -86.78125 C 162.5 -83.777344 150.53125 -84.480469 140.71875 -88.898438 C 134.636719 -91.636719 130.0625 -95.597656 127.007812 -100.785156 C 124.003906 -105.878906 122.699219 -111.769531 123.09375 -118.460938 L 123.101562 -118.636719 L 123.117188 -118.8125 C 123.878906 -127.554688 126.917969 -134.480469 132.238281 -139.585938 L 143.332031 -150.238281 L 155.179688 -144.03125 C 156.417969 -143.382812 159.097656 -142.789062 163.222656 -142.25 C 167.457031 -141.699219 173.164062 -142.140625 180.335938 -143.574219 L 182.800781 -131.25 L 180.015625 -143.507812 C 182.941406 -144.171875 185.179688 -145.308594 186.734375 -146.921875 C 187.875 -148.105469 188.472656 -149.21875 188.535156 -150.269531 C 188.613281 -152.378906 187.054688 -154.675781 183.859375 -157.160156 C 179.050781 -160.902344 171.601562 -163.472656 161.515625 -164.871094 C 150.730469 -166.363281 137.550781 -165.332031 121.988281 -161.777344 C 107.074219 -158.484375 94.414062 -153.035156 84.015625 -145.421875 C 75.390625 -139.109375 70.820312 -131.464844 70.3125 -122.5 C 70.054688 -117.855469 71.40625 -114.261719 74.367188 -111.714844 C 79.105469 -107.640625 85.734375 -104.335938 94.253906 -101.800781 C 104.003906 -98.898438 114.726562 -96.453125 126.410156 -94.46875 C 138.660156 -92.386719 150.726562 -90.242188 162.609375 -88.035156 C 175.265625 -85.6875 186.496094 -82.527344 196.296875 -78.550781 C 207 -74.464844 214.738281 -68.703125 219.515625 -61.269531 C 224.136719 -54.082031 226.445312 -45.359375 226.445312 -35.097656 C 226.445312 -21.328125 221.992188 -9.128906 213.089844 1.492188 C 204.988281 11.15625 194.34375 19.179688 181.148438 25.570312 C 168.542969 31.675781 154.605469 36.109375 139.339844 38.871094 C 124.289062 41.597656 109.046875 42.636719 93.617188 41.988281 C 77.945312 41.328125 63.097656 38.683594 49.070312 34.054688 C 34.503906 29.242188 22.058594 22.238281 11.742188 13.035156 C 3.703125 5.570312 -2.484375 -2.421875 -6.816406 -10.9375 C -11.707031 -20.558594 -13.449219 -29.761719 -12.042969 -38.546875 Z M 12.777344 -34.574219 C 12.230469 -31.171875 13.167969 -27.089844 15.589844 -22.332031 C 18.570312 -16.46875 22.863281 -10.933594 28.472656 -5.722656 C 36.195312 1.164062 45.6875 6.464844 56.953125 10.183594 C 68.761719 14.085938 81.335938 16.3125 94.671875 16.875 C 108.242188 17.445312 121.640625 16.53125 134.863281 14.140625 C 147.871094 11.785156 159.648438 8.054688 170.195312 2.945312 C 180.15625 -1.875 188.035156 -7.742188 193.828125 -14.65625 C 198.816406 -20.605469 201.3125 -27.421875 201.3125 -35.097656 C 201.3125 -40.4375 200.332031 -44.628906 198.371094 -47.679688 C 196.566406 -50.484375 192.730469 -53.011719 186.855469 -55.257812 C 178.621094 -58.597656 169.011719 -61.285156 158.023438 -63.324219 C 146.265625 -65.503906 134.324219 -67.628906 122.199219 -69.6875 C 109.511719 -71.84375 97.808594 -74.519531 87.085938 -77.710938 C 75.132812 -81.265625 65.429688 -86.25 57.980469 -92.65625 C 48.753906 -100.589844 44.5 -111.011719 45.21875 -123.917969 C 46.171875 -140.789062 54.15625 -154.714844 69.171875 -165.707031 C 82.414062 -175.398438 98.152344 -182.257812 116.386719 -186.277344 C 134.945312 -190.519531 151.136719 -191.683594 164.96875 -189.765625 C 179.5 -187.753906 190.941406 -183.496094 199.292969 -177 C 209.261719 -169.25 214.039062 -159.84375 213.628906 -148.792969 C 213.203125 -141.558594 210.269531 -135.117188 204.828125 -129.472656 C 199.800781 -124.261719 193.386719 -120.769531 185.585938 -118.996094 L 185.425781 -118.960938 L 185.265625 -118.929688 C 175.378906 -116.949219 166.949219 -116.417969 159.972656 -117.328125 C 152.882812 -118.25 147.398438 -119.730469 143.519531 -121.765625 L 139.679688 -123.773438 L 145.511719 -134.90625 L 154.214844 -125.839844 L 149.644531 -121.453125 C 148.867188 -120.710938 148.375 -119.105469 148.160156 -116.636719 L 135.640625 -117.722656 L 148.183594 -116.988281 C 148.089844 -115.390625 148.25 -114.246094 148.660156 -113.550781 C 149.015625 -112.949219 149.804688 -112.371094 151.035156 -111.820312 C 155.84375 -109.652344 162.644531 -109.503906 171.425781 -111.375 C 181.378906 -113.480469 189.886719 -118.546875 196.945312 -126.574219 C 203.929688 -134.511719 207.707031 -143.621094 208.277344 -153.898438 C 208.832031 -163.675781 206.84375 -171.464844 202.320312 -177.269531 C 197.382812 -183.605469 190.472656 -188.316406 181.597656 -191.40625 C 171.761719 -194.828125 160.804688 -196.484375 148.730469 -196.375 C 136.285156 -196.261719 123.636719 -194.460938 110.785156 -190.964844 C 98.035156 -187.5 86.257812 -182.476562 75.449219 -175.902344 C 64.992188 -169.542969 56.46875 -162.003906 49.875 -153.285156 C 43.855469 -145.324219 40.550781 -136.230469 39.960938 -126.015625 C 39.152344 -114.125 40.636719 -104.824219 44.410156 -98.105469 C 48.148438 -91.449219 54.351562 -85.953125 63.019531 -81.621094 C 73.054688 -76.601562 85.910156 -72.378906 101.585938 -68.945312 C 118.101562 -65.328125 137.507812 -61.582031 159.800781 -57.703125 C 166.667969 -56.46875 172.339844 -54.992188 176.824219 -53.28125 C 182.714844 -51.03125 187.078125 -48.121094 189.90625 -44.550781 C 193.597656 -39.902344 195 -34.796875 194.117188 -29.242188 C 193.398438 -24.703125 191.109375 -20.449219 187.25 -16.472656 C 182 -11.0625 174.046875 -6.199219 163.394531 -1.878906 C 153.621094 2.082031 142.363281 5.296875 129.621094 7.769531 C 116.890625 10.238281 103.601562 11.472656 89.753906 11.472656 C 75.625 11.472656 62.058594 9.746094 49.058594 6.296875 C 35.253906 2.636719 23.210938 -3.621094 12.929688 -12.476562 C 7.789062 -16.976562 3.816406 -22.03125 1.007812 -27.648438 C -2.484375 -34.632812 -3.332031 -41.484375 -1.539062 -48.207031 L 10.601562 -44.96875 L 10.601562 -32.402344 C 10.765625 -32.402344 10.945312 -32.46875 11.140625 -32.601562 C 11.746094 -33.015625 12.214844 -33.523438 12.558594 -34.117188 C 12.65625 -34.292969 12.730469 -34.449219 12.777344 -34.589844 C 12.78125 -34.605469 12.785156 -34.617188 12.789062 -34.621094 C 12.777344 -34.589844 12.769531 -34.546875 12.761719 -34.496094 Z M 42.273438 74.21875 C 42.273438 63.132812 46.09375 53.859375 53.738281 46.394531 C 61.300781 39.015625 70.195312 35.328125 80.433594 35.328125 C 91.1875 35.328125 99.820312 38.878906 106.332031 45.984375 C 112.554688 52.773438 115.667969 61.085938 115.667969 70.925781 C 115.667969 80.199219 112.238281 88.707031 105.375 96.445312 C 98.121094 104.628906 88.589844 108.722656 76.777344 108.722656 C 66.652344 108.722656 58.34375 105.378906 51.855469 98.691406 C 45.46875 92.109375 42.273438 83.953125 42.273438 74.21875 Z M 67.410156 74.21875 C 67.410156 77.15625 68.234375 79.480469 69.890625 81.183594 C 71.445312 82.785156 73.738281 83.585938 76.777344 83.585938 C 81.050781 83.585938 84.3125 82.316406 86.566406 79.773438 C 89.210938 76.789062 90.53125 73.84375 90.53125 70.925781 C 90.53125 67.605469 89.621094 64.953125 87.804688 62.96875 C 86.273438 61.296875 83.816406 60.460938 80.433594 60.460938 C 77.019531 60.460938 73.972656 61.769531 71.296875 64.382812 C 68.703125 66.914062 67.410156 70.191406 67.410156 74.21875 Z M 96.746094 74.21875 C 96.746094 63.132812 100.570312 53.859375 108.214844 46.394531 C 115.773438 39.015625 124.671875 35.328125 134.90625 35.328125 C 145.660156 35.328125 154.296875 38.878906 160.808594 45.984375 C 167.03125 52.773438 170.144531 61.085938 170.144531 70.925781 C 170.144531 80.496094 166.679688 89.101562 159.753906 96.738281 C 152.507812 104.726562 143.007812 108.722656 131.25 108.722656 C 121.128906 108.722656 112.820312 105.378906 106.328125 98.691406 C 99.941406 92.109375 96.746094 83.953125 96.746094 74.21875 Z M 121.882812 74.21875 C 121.882812 77.15625 122.710938 79.480469 124.367188 81.183594 C 125.917969 82.785156 128.214844 83.585938 131.25 83.585938 C 135.582031 83.585938 138.878906 82.339844 141.136719 79.851562 C 143.71875 77.003906 145.007812 74.03125 145.007812 70.925781 C 145.007812 67.605469 144.097656 64.953125 142.277344 62.96875 C 140.746094 61.296875 138.289062 60.460938 134.90625 60.460938 C 131.496094 60.460938 128.449219 61.769531 125.773438 64.382812 C 123.179688 66.914062 121.882812 70.191406 121.882812 74.21875 Z M 121.882812 74.21875 "/></g></g><g style="fill:#004b96;fill-opacity:1;"><g transform="translate(228.900205, 264.746696)"><path style="stroke:none" d="M 41.90625 -224.847656 C 41.90625 -235.933594 45.730469 -245.207031 53.375 -252.667969 C 60.933594 -260.046875 69.832031 -263.738281 80.066406 -263.738281 C 90.820312 -263.738281 99.453125 -260.1875 105.964844 -253.082031 C 112.191406 -246.292969 115.300781 -237.976562 115.300781 -228.136719 C 115.300781 -218.566406 111.839844 -209.964844 104.914062 -202.328125 C 97.667969 -194.335938 88.167969 -190.34375 76.410156 -190.34375 C 66.285156 -190.34375 57.980469 -193.6875 51.488281 -200.371094 C 45.101562 -206.953125 41.90625 -215.113281 41.90625 -224.847656 Z M 67.042969 -224.847656 C 67.042969 -221.90625 67.871094 -219.585938 69.527344 -217.878906 C 71.078125 -216.277344 73.375 -215.476562 76.410156 -215.476562 C 80.742188 -215.476562 84.039062 -216.722656 86.296875 -219.214844 C 88.875 -222.058594 90.167969 -225.035156 90.167969 -228.136719 C 90.167969 -231.457031 89.257812 -234.113281 87.4375 -236.097656 C 85.90625 -237.765625 83.449219 -238.601562 80.066406 -238.601562 C 76.652344 -238.601562 73.609375 -237.296875 70.933594 -234.683594 C 68.339844 -232.152344 67.042969 -228.871094 67.042969 -224.847656 Z M -43.253906 59.136719 C -44.910156 54.578125 -44.878906 50.410156 -43.15625 46.625 C -41.742188 43.511719 -39.484375 41.214844 -36.382812 39.734375 C -34.320312 38.746094 -32.0625 38.25 -29.613281 38.25 C -20.800781 38.25 -13.429688 35.679688 -7.503906 30.539062 C -0.644531 24.589844 5.210938 16.078125 10.058594 5.011719 C 15.339844 -7.046875 19.78125 -21.089844 23.382812 -37.121094 C 27.089844 -53.621094 30.324219 -71.402344 33.078125 -90.457031 C 35.867188 -109.738281 38.476562 -129.441406 40.902344 -149.574219 C 42.234375 -160.023438 42.664062 -167.09375 42.191406 -170.785156 L 40.011719 -187.785156 L 53.71875 -192.925781 C 58.066406 -194.554688 64.410156 -195.371094 72.753906 -195.371094 C 91.875 -195.371094 104.148438 -190.378906 109.574219 -180.394531 C 114.003906 -172.242188 114.878906 -160.277344 112.199219 -144.503906 L 105.605469 -107.132812 C 101.894531 -86.105469 97.503906 -65.628906 92.429688 -45.707031 C 87.25 -25.367188 80.910156 -6.9375 73.414062 9.582031 C 65.53125 26.949219 55.675781 41.144531 43.84375 52.15625 C 31.164062 63.960938 15.855469 70.734375 -2.078125 72.46875 L -2.292969 72.488281 L -2.507812 72.503906 C -6.796875 72.769531 -11.089844 72.835938 -15.382812 72.703125 C -19.449219 72.578125 -23.273438 72.386719 -26.851562 72.128906 C -31.140625 71.773438 -34.773438 70.304688 -37.753906 67.71875 C -40.667969 65.195312 -42.628906 61.917969 -43.632812 57.890625 L -31.441406 54.839844 Z M -19.632812 50.546875 L -19.40625 51.160156 L -19.25 51.792969 C -19.527344 50.6875 -20.207031 49.664062 -21.292969 48.726562 C -22.445312 47.726562 -23.699219 47.171875 -25.0625 47.058594 C -21.816406 47.289062 -18.328125 47.464844 -14.597656 47.582031 C -11.089844 47.691406 -7.582031 47.636719 -4.074219 47.414062 L -3.289062 59.960938 L -4.5 47.449219 C 7.785156 46.261719 18.191406 41.699219 26.71875 33.761719 C 36.09375 25.03125 44.027344 13.507812 50.527344 -0.808594 C 57.410156 -15.972656 63.257812 -33.007812 68.070312 -51.910156 C 72.992188 -71.226562 77.25 -91.089844 80.851562 -111.5 L 87.417969 -148.710938 C 88.367188 -154.28125 88.753906 -158.933594 88.582031 -162.664062 C 88.457031 -165.371094 88.09375 -167.28125 87.488281 -168.390625 C 87.636719 -168.117188 87.753906 -167.949219 87.84375 -167.886719 C 87.453125 -168.167969 86.804688 -168.457031 85.902344 -168.75 C 82.875 -169.738281 78.492188 -170.234375 72.753906 -170.234375 C 67.449219 -170.234375 64.046875 -169.953125 62.542969 -169.390625 L 58.15625 -167.742188 L 53.742188 -179.511719 L 66.210938 -181.109375 L 67.125 -173.980469 C 67.871094 -168.164062 67.445312 -159.027344 65.855469 -146.566406 C 63.40625 -126.238281 60.773438 -106.335938 57.957031 -86.859375 C 55.105469 -67.160156 51.757812 -48.746094 47.910156 -31.613281 C 43.953125 -14.007812 39.011719 1.5625 33.082031 15.097656 C 26.71875 29.621094 18.679688 41.097656 8.96875 49.527344 C -1.683594 58.765625 -14.542969 63.386719 -29.613281 63.386719 C -28.261719 63.386719 -26.902344 63.058594 -25.539062 62.40625 C -23.140625 61.261719 -21.382812 59.464844 -20.273438 57.023438 C -19.511719 55.34375 -19.203125 53.648438 -19.359375 51.941406 C -19.414062 51.363281 -19.503906 50.898438 -19.632812 50.546875 Z M -19.632812 50.546875 "/></g></g><g style="fill:#0064c8;fill-opacity:1;"><g transform="translate(37.324473, 264.746696)"><path style="stroke:none" d="M 0.359375 -36.5625 C 0.847656 -39.488281 2.066406 -41.617188 4.015625 -42.953125 C 5.972656 -44.296875 8.171875 -44.96875 10.609375 -44.96875 C 9.628906 -41.3125 10.175781 -37.410156 12.25 -33.265625 C 14.320312 -29.128906 17.304688 -25.351562 21.203125 -21.9375 C 29.984375 -14.382812 40.34375 -9.019531 52.28125 -5.84375 C 64.226562 -2.675781 76.71875 -1.09375 89.75 -1.09375 C 102.789062 -1.09375 115.28125 -2.25 127.21875 -4.5625 C 139.164062 -6.882812 149.648438 -9.875 158.671875 -13.53125 C 167.691406 -17.1875 174.210938 -21.082031 178.234375 -25.21875 C 182.253906 -29.363281 182.863281 -33.203125 180.0625 -36.734375 C 177.257812 -40.273438 169.765625 -43.140625 157.578125 -45.328125 C 135.148438 -49.234375 115.585938 -53.015625 98.890625 -56.671875 C 82.203125 -60.328125 68.375 -64.894531 57.40625 -70.375 C 46.4375 -75.863281 38.453125 -83.054688 33.453125 -91.953125 C 28.453125 -100.847656 26.441406 -112.484375 27.421875 -126.859375 C 28.148438 -139.535156 32.289062 -150.867188 39.84375 -160.859375 C 47.40625 -170.859375 57.097656 -179.453125 68.921875 -186.640625 C 80.742188 -193.828125 93.597656 -199.3125 107.484375 -203.09375 C 121.378906 -206.875 135.085938 -208.820312 148.609375 -208.9375 C 162.140625 -209.0625 174.507812 -207.171875 185.71875 -203.265625 C 196.9375 -199.367188 205.773438 -193.273438 212.234375 -184.984375 C 218.691406 -176.703125 221.554688 -166.101562 220.828125 -153.1875 C 220.097656 -140.03125 215.285156 -128.394531 206.390625 -118.28125 C 197.492188 -108.164062 186.707031 -101.765625 174.03125 -99.078125 C 162.570312 -96.640625 153.1875 -97.066406 145.875 -100.359375 C 138.5625 -103.648438 135.148438 -109.4375 135.640625 -117.71875 C 136.128906 -123.332031 137.894531 -127.597656 140.9375 -130.515625 C 143.988281 -133.441406 145.515625 -134.90625 145.515625 -134.90625 C 145.515625 -134.90625 146.789062 -134.234375 149.34375 -132.890625 C 151.90625 -131.554688 155.988281 -130.519531 161.59375 -129.78125 C 167.207031 -129.050781 174.28125 -129.539062 182.8125 -131.25 C 188.164062 -132.46875 192.488281 -134.78125 195.78125 -138.1875 C 199.070312 -141.601562 200.835938 -145.382812 201.078125 -149.53125 C 201.328125 -156.113281 198.160156 -161.960938 191.578125 -167.078125 C 184.992188 -172.203125 175.546875 -175.613281 163.234375 -177.3125 C 150.929688 -179.019531 136.25 -177.925781 119.1875 -174.03125 C 102.613281 -170.375 88.414062 -164.21875 76.59375 -155.5625 C 64.769531 -146.914062 58.492188 -136.128906 57.765625 -123.203125 C 57.273438 -114.429688 60.078125 -107.425781 66.171875 -102.1875 C 72.265625 -96.945312 80.429688 -92.800781 90.671875 -89.75 C 100.910156 -86.707031 112.125 -84.148438 124.3125 -82.078125 C 136.5 -80.003906 148.5 -77.867188 160.3125 -75.671875 C 172.132812 -73.484375 182.554688 -70.5625 191.578125 -66.90625 C 199.867188 -63.738281 205.65625 -59.59375 208.9375 -54.46875 C 212.226562 -49.351562 213.875 -42.894531 213.875 -35.09375 C 213.875 -24.375 210.398438 -14.867188 203.453125 -6.578125 C 196.515625 1.703125 187.253906 8.644531 175.671875 14.25 C 164.097656 19.863281 151.238281 23.945312 137.09375 26.5 C 122.957031 29.0625 108.640625 30.035156 94.140625 29.421875 C 79.640625 28.816406 65.929688 26.378906 53.015625 22.109375 C 40.097656 17.847656 29.128906 11.695312 20.109375 3.65625 C 13.285156 -2.675781 8.046875 -9.4375 4.390625 -16.625 C 0.734375 -23.820312 -0.609375 -30.46875 0.359375 -36.5625 Z M 54.84375 74.21875 C 54.84375 66.664062 57.398438 60.390625 62.515625 55.390625 C 67.640625 50.390625 73.613281 47.890625 80.4375 47.890625 C 87.5 47.890625 93.039062 50.082031 97.0625 54.46875 C 101.09375 58.863281 103.109375 64.347656 103.109375 70.921875 C 103.109375 77.015625 100.726562 82.742188 95.96875 88.109375 C 91.21875 93.472656 84.820312 96.15625 76.78125 96.15625 C 70.195312 96.15625 64.894531 94.082031 60.875 89.9375 C 56.851562 85.789062 54.84375 80.550781 54.84375 74.21875 Z M 109.3125 74.21875 C 109.3125 66.664062 111.867188 60.390625 116.984375 55.390625 C 122.109375 50.390625 128.082031 47.890625 134.90625 47.890625 C 141.976562 47.890625 147.523438 50.082031 151.546875 54.46875 C 155.566406 58.863281 157.578125 64.347656 157.578125 70.921875 C 157.578125 77.265625 155.195312 83.054688 150.4375 88.296875 C 145.6875 93.535156 139.289062 96.15625 131.25 96.15625 C 124.664062 96.15625 119.363281 94.082031 115.34375 89.9375 C 111.320312 85.789062 109.3125 80.550781 109.3125 74.21875 Z M 109.3125 74.21875 "/></g></g><g style="fill:#0064c8;fill-opacity:1;"><g transform="translate(228.900205, 264.746696)"><path style="stroke:none" d="M 54.46875 -224.84375 C 54.46875 -232.40625 57.023438 -238.679688 62.140625 -243.671875 C 67.265625 -248.671875 73.238281 -251.171875 80.0625 -251.171875 C 87.132812 -251.171875 92.679688 -248.976562 96.703125 -244.59375 C 100.722656 -240.207031 102.734375 -234.722656 102.734375 -228.140625 C 102.734375 -221.804688 100.359375 -216.015625 95.609375 -210.765625 C 90.859375 -205.523438 84.457031 -202.90625 76.40625 -202.90625 C 69.832031 -202.90625 64.53125 -204.976562 60.5 -209.125 C 56.476562 -213.269531 54.46875 -218.507812 54.46875 -224.84375 Z M -31.4375 54.84375 C -32.414062 52.15625 -31.804688 50.8125 -29.609375 50.8125 C -17.671875 50.8125 -7.5625 47.21875 0.71875 40.03125 C 9.007812 32.84375 15.957031 22.847656 21.5625 10.046875 C 27.175781 -2.742188 31.867188 -17.546875 35.640625 -34.359375 C 39.421875 -51.179688 42.710938 -69.28125 45.515625 -88.65625 C 48.316406 -108.03125 50.9375 -127.835938 53.375 -148.078125 C 54.84375 -159.523438 55.269531 -167.625 54.65625 -172.375 C 54.050781 -177.132812 53.75 -179.515625 53.75 -179.515625 C 53.75 -179.515625 55.207031 -180.0625 58.125 -181.15625 C 61.050781 -182.257812 65.925781 -182.8125 72.75 -182.8125 C 86.894531 -182.8125 95.488281 -180.003906 98.53125 -174.390625 C 101.582031 -168.785156 102.007812 -159.523438 99.8125 -146.609375 L 93.234375 -109.3125 C 89.578125 -88.59375 85.25 -68.421875 80.25 -48.796875 C 75.25 -29.179688 69.15625 -11.453125 61.96875 4.390625 C 54.78125 20.234375 45.882812 33.085938 35.28125 42.953125 C 24.675781 52.828125 11.816406 58.492188 -3.296875 59.953125 C -7.191406 60.203125 -11.085938 60.265625 -14.984375 60.140625 C -18.890625 60.015625 -22.546875 59.832031 -25.953125 59.59375 C -28.878906 59.351562 -30.707031 57.769531 -31.4375 54.84375 Z M -31.4375 54.84375 "/></g></g></g></svg>